M48
;Layer_Color=9474304
;FILE_FORMAT=2:4
INCH,TZ
;TYPE=PLATED
T1F00S00C0.0315
T2F00S00C0.0394
T3F00S00C0.0472
T4F00S00C0.1181
%
T01
X35650Y26700
X35750Y29200
X34750Y29150
X33350Y29450
X36900Y29200
X38000Y27700
X38550Y26700
X39450Y26600
Y28100
X38900Y31200
X24250Y28550
Y27550
X22250Y30400
X21500Y33100
X29700Y38650
X31700
X31800Y37650
X32550Y37050
X32750Y39550
X35300Y37600
X36826Y38776
X37700Y36350
X38395Y35295
X38400Y31950
X39300Y32400
T02
X32450Y25600
Y27411
X33250Y28450
X34250
X35250
X36250
X37250
X38250
X40850Y28100
Y29100
Y30100
Y31100
X41850
Y30100
Y29100
Y28100
X35048Y27411
Y25600
X29050Y27550
Y28550
Y29550
Y30550
X28050
X27050
Y29550
Y28550
Y27550
X28050
Y28550
Y29550
Y31550
X29050
Y32550
Y33550
Y34550
Y35550
Y36550
X28050
X27050
Y35550
Y34550
Y33550
Y32550
Y31550
X28050Y32550
Y33550
Y34550
Y35550
X40850Y35100
Y36100
Y37100
X41850
Y36100
Y35100
Y34100
X40850
Y33100
X41850
Y32100
X40850
T03
X17400Y32631
Y34600
T04
X39150Y25150
X16500Y25550
Y38950
X39150Y39350
M30
