%FSLAX24Y24*%
%MOIN*%
G70*
G01*
G75*
G04 Layer_Physical_Order=2*
G04 Layer_Color=16711680*
%ADD10C,0.0200*%
%ADD11C,0.0700*%
%ADD12R,0.0700X0.0700*%
%ADD13R,0.0700X0.0700*%
%ADD14C,0.0800*%
%ADD15C,0.1181*%
D10*
X61850Y31050D02*
X63550Y29350D01*
X47100Y31050D02*
X61850D01*
X45650Y32500D02*
X47100Y31050D01*
X24300Y29550D02*
X60550D01*
X60850Y30300D02*
X62600Y28550D01*
X25600Y30300D02*
X60850D01*
X13900Y27750D02*
Y31350D01*
X15550Y33000D01*
X17500D01*
X14900Y27750D02*
Y29100D01*
X18950Y33150D01*
Y34000D01*
X31500Y36850D02*
Y39250D01*
X27650Y33000D02*
X31500Y36850D01*
X23500Y33000D02*
X23750D01*
X27650D01*
X16900Y27750D02*
X19600Y30450D01*
Y39200D01*
X17900Y27750D02*
X20250Y30100D01*
Y38700D01*
X32500Y39250D02*
Y41000D01*
X33500Y39250D02*
Y41000D01*
X19600Y39200D02*
X22600Y42200D01*
X31500D01*
X30500Y39250D02*
Y40350D01*
X20250Y38700D02*
X23050Y41500D01*
X30350D01*
X30500Y41650D01*
X15900Y27750D02*
Y29150D01*
X24000Y29850D02*
Y31000D01*
X61600Y27750D02*
Y28500D01*
X62600Y27750D02*
Y28550D01*
X60600Y27750D02*
X61200Y27150D01*
X63350D01*
X63550Y27350D01*
Y29350D01*
X45650Y32500D02*
Y36450D01*
X24000Y29850D02*
X24300Y29550D01*
X60550D02*
X61600Y28500D01*
X58550Y27800D02*
Y28800D01*
X59600Y27750D02*
Y28800D01*
D11*
X48600Y35450D02*
D03*
X47600D02*
D03*
X48600Y36450D02*
D03*
X47600D02*
D03*
X48600Y37450D02*
D03*
X30500Y44150D02*
D03*
X31500Y43150D02*
D03*
Y44150D02*
D03*
X32500Y43150D02*
D03*
Y44150D02*
D03*
X33500Y43150D02*
D03*
Y44150D02*
D03*
X21400Y32950D02*
D03*
X22400Y33950D02*
D03*
X21400D02*
D03*
X22400Y34950D02*
D03*
X21400D02*
D03*
X22400Y35950D02*
D03*
X21400D02*
D03*
X22400Y36950D02*
D03*
X21400D02*
D03*
X17900Y27750D02*
D03*
X16900D02*
D03*
X15900D02*
D03*
X14900D02*
D03*
X62600D02*
D03*
X61600D02*
D03*
X60600D02*
D03*
X59600D02*
D03*
X33500Y39250D02*
D03*
X32500D02*
D03*
X31500D02*
D03*
X30500D02*
D03*
X29500D02*
D03*
X18000Y43450D02*
D03*
X19000D02*
D03*
X22400Y30950D02*
D03*
X21400Y29950D02*
D03*
X22400D02*
D03*
D12*
X47600Y37450D02*
D03*
X22400Y32950D02*
D03*
X21400Y30950D02*
D03*
D13*
X30500Y43150D02*
D03*
X13900Y27750D02*
D03*
X58600D02*
D03*
X34500Y39250D02*
D03*
X17000Y43450D02*
D03*
D14*
X25600Y30300D02*
D03*
X18950Y34000D02*
D03*
X17550Y33000D02*
D03*
X23750D02*
D03*
X32500Y41000D02*
D03*
X33500D02*
D03*
X31500Y42200D02*
D03*
X30500Y40350D02*
D03*
Y41500D02*
D03*
X15900Y29150D02*
D03*
X24000Y31000D02*
D03*
X45650Y36450D02*
D03*
X58550Y28800D02*
D03*
X59600D02*
D03*
D15*
X11500Y28150D02*
D03*
X20250D02*
D03*
X65000D02*
D03*
X56200D02*
D03*
M02*
