M48
;Layer_Color=9474304
;FILE_FORMAT=2:4
INCH,TZ
;TYPE=PLATED
T1F00S00C0.0315
T2F00S00C0.0394
T3F00S00C0.1181
%
T01
X58550Y28800
X59600
X25600Y30300
X24000Y31000
X15900Y29150
X17550Y33000
X18950Y34000
X23750Y33000
X30500Y40350
Y41500
X31500Y42200
X32500Y41000
X33500
X45650Y36450
T02
X62600Y27750
X61600
X60600
X59600
X58600
X22400Y29950
Y30950
X21400
Y29950
X17900Y27750
X16900
X15900
X14900
X13900
X21400Y32950
X22400
Y33950
X21400
Y34950
X22400
Y35950
X21400
Y36950
X22400
X29500Y39250
X30500
Y43150
Y44150
X19000Y43450
X18000
X17000
X31500Y43150
Y44150
X32500
Y43150
X33500
Y44150
Y39250
X34500
X32500
X31500
X47600Y37450
Y36450
Y35450
X48600
Y36450
Y37450
T03
X65000Y28150
X56200
X20250
X11500
M30
